<svg viewBox="-500 -500 1000 1000" xmlns="http://www.w3.org/2000/svg">
    <line x1="-2000" y1="0" x2="2000" y2="0" stroke="white" stroke-width="4"/>
    <line x1="0" y1="-2000" x2="0" y2="2000" stroke="white" stroke-width="4"/>
    
    <line x1="-37.5" y1="76" x2="37.5" y2="76" stroke="white" stroke-width="4"/>
    <line x1="-37.5" y1="145" x2="37.5" y2="145" stroke="white" stroke-width="4"/>
    <line x1="-37.5" y1="-76" x2="37.5" y2="-76" stroke="white" stroke-width="4"/>
    <line x1="-37.5" y1="-145" x2="37.5" y2="-145" stroke="white" stroke-width="4"/>
    <line x1="76" y1="-37.5" x2="76" y2="37.5" stroke="white" stroke-width="4"/>
    <line x1="145" y1="-37.5" x2="145" y2="37.5" stroke="white" stroke-width="4"/>
    <line x1="-76" y1="-37.5" x2="-76" y2="37.5" stroke="white" stroke-width="4"/>
    <line x1="-145" y1="-37.5" x2="-145" y2="37.5" stroke="white" stroke-width="4"/>

    <circle cx="0" cy="0" r="38" fill="transparent" stroke="white" stroke-width="4px"/>
    <circle cx="0" cy="0" r="170.5" fill="transparent" stroke="white" stroke-width="7px"/>
    <circle cx="0" cy="0" r="189.5" fill="transparent" stroke="white" stroke-width="13px"/>

    <polygon points="-18.19 256.5 0 225 18.19 256.5" fill="white" transform="rotate(45)" />
    <polygon points="-18.19 256.5 0 225 18.19 256.5" fill="white" transform="rotate(135)" />
    <polygon points="-18.19 256.5 0 225 18.19 256.5" fill="white" transform="rotate(-45)" />
    <polygon points="-18.19 256.5 0 225 18.19 256.5" fill="white" transform="rotate(-135)" />
</svg>